/vscmnt/brussel_pixiu_data/_data_brussel/112/vsc11236/PredSimResults/SUBJ07_Dhondt2024_3seg/weighted/worker_01.mot
version=1
nRows=4
nColumns=124
inDegrees=yes
endheader
                time	         pelvis_tilt	         pelvis_list	     pelvis_rotation	           pelvis_tx	           pelvis_ty	           pelvis_tz	       hip_flexion_r	     hip_adduction_r	      hip_rotation_r	        knee_angle_r	       ankle_angle_r	    subtalar_angle_r	         mtp_angle_r	       hip_flexion_l	     hip_adduction_l	      hip_rotation_l	        knee_angle_l	       ankle_angle_l	    subtalar_angle_l	         mtp_angle_l	    lumbar_extension	      lumbar_bending	     lumbar_rotation	          arm_flex_r	           arm_add_r	           arm_rot_r	        elbow_flex_r	          arm_flex_l	           arm_add_l	           arm_rot_l	        elbow_flex_l	glut_med1_r/activation	glut_med2_r/activation	glut_med3_r/activation	glut_min1_r/activation	glut_min2_r/activation	glut_min3_r/activation	semimem_r/activation	semiten_r/activation	bifemlh_r/activation	bifemsh_r/activation	    sar_r/activation	add_long_r/activation	add_brev_r/activation	add_mag1_r/activation	add_mag2_r/activation	add_mag3_r/activation	    tfl_r/activation	   pect_r/activation	   grac_r/activation	glut_max1_r/activation	glut_max2_r/activation	glut_max3_r/activation	iliacus_r/activation	  psoas_r/activation	quad_fem_r/activation	    gem_r/activation	   peri_r/activation	rect_fem_r/activation	vas_med_r/activation	vas_int_r/activation	vas_lat_r/activation	med_gas_r/activation	lat_gas_r/activation	 soleus_r/activation	tib_post_r/activation	flex_dig_r/activation	flex_hal_r/activation	tib_ant_r/activation	per_brev_r/activation	per_long_r/activation	per_tert_r/activation	ext_dig_r/activation	ext_hal_r/activation	glut_med1_l/activation	glut_med2_l/activation	glut_med3_l/activation	glut_min1_l/activation	glut_min2_l/activation	glut_min3_l/activation	semimem_l/activation	semiten_l/activation	bifemlh_l/activation	bifemsh_l/activation	    sar_l/activation	add_long_l/activation	add_brev_l/activation	add_mag1_l/activation	add_mag2_l/activation	add_mag3_l/activation	    tfl_l/activation	   pect_l/activation	   grac_l/activation	glut_max1_l/activation	glut_max2_l/activation	glut_max3_l/activation	iliacus_l/activation	  psoas_l/activation	quad_fem_l/activation	    gem_l/activation	   peri_l/activation	rect_fem_l/activation	vas_med_l/activation	vas_int_l/activation	vas_lat_l/activation	med_gas_l/activation	lat_gas_l/activation	 soleus_l/activation	tib_post_l/activation	flex_dig_l/activation	flex_hal_l/activation	tib_ant_l/activation	per_brev_l/activation	per_long_l/activation	per_tert_l/activation	ext_dig_l/activation	ext_hal_l/activation	 ercspn_r/activation	 ercspn_l/activation	 intobl_r/activation	 intobl_l/activation	 extobl_r/activation	 extobl_l/activation	
          0.00000000	         -2.92650410	         -0.61523995	          1.79862041	          0.00000000	          0.84951334	         -0.00103860	         27.53979279	          2.68927917	          2.45699795	        -10.67029366	          9.38863454	         -0.93593678	          0.23482682	        -16.78776280	          0.96384217	          8.18404522	         -6.32571743	          3.60954925	         13.09581249	         14.84176944	         -6.83210423	          0.01016652	         -1.40456669	        -18.88038527	        -14.35883885	         -2.14773443	         48.66935703	         12.80718583	        -13.94013903	         18.96762804	         48.72619813	          0.01351582	          0.01000038	          0.01162574	          0.01000008	          0.01000010	          0.01000021	          0.20924785	          0.04678299	          0.01536381	          0.01000010	          0.01337710	          0.05127043	          0.12604456	          0.09682490	          0.10016820	          0.08827038	          0.01000012	          0.01711329	          0.04088412	          0.01348854	          0.01607143	          0.06014548	          0.01342221	          0.01271011	          0.01425159	          0.01000109	          0.01000012	          0.01000003	          0.09266024	          0.09620961	          0.07952544	          0.01162586	          0.01162563	          0.01162588	          0.01000002	          0.01000009	          0.01000021	          0.27664315	          0.20582535	          0.12795559	          0.09342599	          0.30750846	          0.03988806	          0.17153014	          0.08776717	          0.05705015	          0.24016369	          0.20301384	          0.13649321	          0.01159529	          0.01000050	          0.01000023	          0.03566250	          0.08157458	          0.01000006	          0.01000003	          0.01000007	          0.01000029	          0.01000019	          0.37908595	          0.01000037	          0.01000030	          0.01571702	          0.01459694	          0.01000051	          0.19385665	          0.38582690	          0.01571366	          0.01571385	          0.05273078	          0.29128916	          0.01000004	          0.01000004	          0.01000003	          0.29231617	          0.34416630	          0.26307672	          0.26373810	          0.32436231	          0.40418863	          0.01622408	          0.09120940	          0.19835768	          0.01351616	          0.01358071	          0.01635901	          0.01551738	          0.00999999	          0.03220339	          0.01000001	          0.09069061	          0.01000002	
          0.00975535	         -2.92045979	         -0.90544189	          1.95510702	          0.01452146	          0.84899793	         -0.00084222	         26.88452233	          3.17621589	          2.49522966	        -10.41057285	          8.55830267	         -1.01196476	          0.23897855	        -16.70286740	          0.64917751	          8.11386335	         -8.13748189	          2.59449128	         13.39913672	         15.88846780	         -6.70773967	          0.49484314	         -1.44411091	        -19.44565297	        -14.39839391	         -2.35920382	         48.39360363	         12.32150375	        -13.95581648	         18.78613065	         50.02730438	          0.01162589	          0.01162588	          0.01000001	          0.01162595	          0.01162592	          0.01162576	          0.17998436	          0.04024036	          0.01321517	          0.01000002	          0.01150634	          0.04410027	          0.13077177	          0.20039389	          0.17381578	          0.10158589	          0.01000030	          0.01823692	          0.03516651	          0.01160218	          0.01382383	          0.06154628	          0.01497515	          0.01093267	          0.17986435	          0.01000005	          0.01000003	          0.01351008	          0.10663664	          0.08872045	          0.08375782	          0.00999999	          0.01000000	          0.00999999	          0.01000002	          0.01000044	          0.01000007	          0.27878925	          0.19460925	          0.12448162	          0.08995609	          0.33438031	          0.04296824	          0.20012292	          0.07549286	          0.04907164	          0.20657666	          0.17462219	          0.11740452	          0.01000024	          0.01000003	          0.01000002	          0.03067507	          0.07016632	          0.03891767	          0.04386894	          0.01000050	          0.01000055	          0.01000011	          0.32607047	          0.09277366	          0.01162650	          0.01351902	          0.01255562	          0.01000019	          0.16674563	          0.33186867	          0.01351610	          0.01351627	          0.04535633	          0.25438227	          0.01000013	          0.01000017	          0.01000016	          0.25143550	          0.29603434	          0.23078215	          0.24087497	          0.27900006	          0.34766264	          0.01395513	          0.07845371	          0.18235469	          0.01162592	          0.01168144	          0.01407119	          0.01334726	          0.01855077	          0.02769972	          0.02626287	          0.07800745	          0.01379370	
          0.01951069	         -2.91151185	         -1.20447611	          2.09942528	          0.02919827	          0.84845060	         -0.00065707	         26.20479032	          3.62519327	          2.56353985	        -10.68443607	          7.44466182	         -1.06252498	          0.24130989	        -16.51015553	          0.34185178	          8.03108149	        -10.13505663	          1.42262242	         13.67869749	         16.90158423	         -6.57710448	          0.99242243	         -1.47486961	        -19.84360928	        -14.45230163	         -2.40453500	         47.75244802	         11.77919592	        -13.96036033	         18.58565220	         51.22452996	          0.01000000	          0.01000001	          0.01982787	          0.01000006	          0.01000004	          0.01000002	          0.15481339	          0.07453005	          0.05251693	          0.01571316	          0.01162636	          0.03793283	          0.15551822	          0.17236877	          0.14950758	          0.08737921	          0.01000003	          0.01568724	          0.10661655	          0.01000025	          0.05802527	          0.05293908	          0.01351582	          0.01351601	          0.16342606	          0.01826030	          0.01150169	          0.01162070	          0.09172342	          0.07631283	          0.07204422	          0.01566655	          0.01571375	          0.01389364	          0.01193632	          0.01162613	          0.01351643	          0.23980033	          0.18587373	          0.12300122	          0.07737566	          0.28761698	          0.03695910	          0.17213557	          0.06493512	          0.04220893	          0.17768677	          0.15020113	          0.10098540	          0.01179330	          0.01000051	          0.01162574	          0.02638514	          0.06035351	          0.03347520	          0.16709335	          0.01162591	          0.01162599	          0.01162642	          0.28046924	          0.07979948	          0.01000078	          0.01162842	          0.01079993	          0.01162223	          0.14342611	          0.28545655	          0.01162587	          0.01162603	          0.03901321	          0.21880669	          0.01487643	          0.01162673	          0.01162610	          0.21627202	          0.25463368	          0.19850706	          0.20718840	          0.23998168	          0.29904173	          0.01200350	          0.06748194	          0.18960105	          0.01000003	          0.01004778	          0.01210333	          0.01148063	          0.03289602	          0.02382589	          0.02258998	          0.06709804	          0.01571355	
          0.02926604	         -2.90072496	         -1.52170176	          2.22908188	          0.04392721	          0.84790323	         -0.00048829	         25.50424195	          4.02904057	          2.66956799	        -11.09519924	          6.21044122	         -1.09526088	          0.24131251	        -16.18232547	          0.03698137	          7.92893965	        -12.34601610	          0.07591061	         13.91315919	         17.82724353	         -6.44708081	          1.51156355	         -1.49631114	        -20.05263754	        -14.52452150	         -2.27896725	         46.74448723	         11.20223997	        -13.95252787	         18.38462350	         52.29706239	          0.24127843	          0.25521077	          0.24853825	          0.21937728	          0.10531366	          0.08469205	          0.13316260	          0.06410710	          0.04517242	          0.01351613	          0.01000049	          0.03262790	          0.13376889	          0.14826292	          0.12859897	          0.11490722	          0.01000019	          0.01349349	          0.09170620	          0.19215034	          0.12176158	          0.07542854	          0.01162586	          0.01162586	          0.14057080	          0.01570661	          0.01000008	          0.01000001	          0.07889626	          0.06564048	          0.06196887	          0.01347557	          0.01351617	          0.01195060	          0.01026702	          0.01000021	          0.01162615	          0.40912339	          0.27916465	          0.13667846	          0.44095450	          0.42974612	          0.26540493	          0.19383587	          0.05585389	          0.03630597	          0.25833629	          0.12919539	          0.08686250	          0.01642047	          0.01000003	          0.01000002	          0.02269516	          0.05191303	          0.02879370	          0.14372523	          0.01000007	          0.01000024	          0.01000051	          0.24124544	          0.06863965	          0.01000011	          0.01000223	          0.01000007	          0.01000005	          0.12336785	          0.24553521	          0.01000000	          0.01000014	          0.03355718	          0.20434434	          0.01279596	          0.01000073	          0.01000019	          0.18602619	          0.21902294	          0.17074567	          0.17821292	          0.20642004	          0.25722049	          0.01032480	          0.10252821	          0.17928546	          0.01000005	          0.01000003	          0.01041071	          0.04182315	          0.06562124	          0.02049382	          0.01943076	          0.05771432	          0.01351600	
